<svg width="86.000000" height="40.000000" viewBox="0 0 86 40" fill="none" xmlns="http://www.w3.org/2000/svg" xmlns:xlink="http://www.w3.org/1999/xlink">
	<desc>
			Created with Pixso.
	</desc>
	<defs>
		<clipPath id="clip16_551">
			<rect id="BTS_logo" width="19.000000" height="40.000000" fill="white" fill-opacity="0"/>
		</clipPath>
	</defs>
	<path id="STORE" d="M34.84 27.27C34.36 27.75 33.79 28 33.14 28L30.5 28C29.83 28 29.27 27.78 28.82 27.3C28.34 26.86 28.1 26.29 28.1 25.59L28.1 23.2L30.5 23.2L30.5 25.24C30.5 25.41 30.55 25.55 30.67 25.67C30.79 25.79 30.93 25.83 31.1 25.83L32.54 25.83C32.68 25.83 32.83 25.79 32.95 25.67C33.07 25.55 33.14 25.41 33.14 25.24L33.14 22.45C33.14 21.92 32.92 21.54 32.54 21.27L30.48 19.91C29.95 19.57 29.54 19.28 29.27 19.04C28.99 18.83 28.72 18.49 28.48 18.06C28.22 17.63 28.1 17.15 28.1 16.62L28.1 13.59C28.1 12.92 28.34 12.34 28.82 11.89C29.27 11.44 29.83 11.2 30.5 11.2L33.14 11.2C33.79 11.2 34.36 11.44 34.84 11.92C35.3 12.4 35.54 12.95 35.54 13.59L35.54 16L33.14 16L33.14 13.96C33.14 13.81 33.07 13.67 32.95 13.55C32.83 13.43 32.68 13.35 32.54 13.35L31.1 13.35C30.93 13.35 30.79 13.43 30.67 13.55C30.55 13.67 30.5 13.81 30.5 13.96L30.5 16.24C30.5 16.76 30.69 17.17 31.1 17.44L33.11 18.71C33.89 19.24 34.48 19.74 34.92 20.24C35.32 20.75 35.54 21.37 35.54 22.11L35.54 25.59C35.54 26.27 35.3 26.82 34.84 27.27ZM44.68 13.35L44.68 28L42.29 28L42.29 13.35L39.88 13.35L39.88 11.2L47.08 11.2L47.08 13.35L44.68 13.35ZM58.43 27.27C57.98 27.75 57.4 28 56.73 28L54.09 28C53.42 28 52.87 27.75 52.39 27.27C51.91 26.82 51.69 26.27 51.69 25.59L51.69 13.59C51.69 12.95 51.91 12.4 52.39 11.92C52.87 11.44 53.42 11.2 54.09 11.2L56.73 11.2C57.38 11.2 57.93 11.44 58.41 11.89C58.89 12.34 59.13 12.92 59.13 13.59L59.13 25.59C59.13 26.27 58.89 26.82 58.43 27.27ZM71.01 19.86L73.24 28L70.72 28L68.73 20.44L67.53 20.44L67.53 28L65.13 28L65.13 11.2L70.2 11.2C70.82 11.2 71.37 11.44 71.88 11.89C72.33 12.37 72.57 12.92 72.57 13.59L72.57 17.65C72.57 18.3 72.33 18.85 71.9 19.33C71.61 19.59 71.3 19.76 71.01 19.86ZM84.69 25.83L84.69 28L78.69 28L78.69 11.2L84.69 11.2L84.69 13.35L81.09 13.35L81.09 18.27L84.02 18.27L84.02 20.44L81.09 20.44L81.09 25.83L84.69 25.83ZM56.54 25.67C56.66 25.55 56.73 25.41 56.73 25.24L56.73 13.96C56.73 13.81 56.66 13.67 56.54 13.55C56.42 13.43 56.28 13.35 56.13 13.35L54.69 13.35C54.52 13.35 54.38 13.43 54.26 13.55C54.14 13.67 54.09 13.81 54.09 13.96L54.09 25.24C54.09 25.41 54.14 25.55 54.26 25.67C54.38 25.79 54.52 25.83 54.69 25.83L56.13 25.83C56.28 25.83 56.42 25.79 56.54 25.67ZM69.96 18.1C70.07 17.99 70.15 17.84 70.17 17.65L70.17 13.96C70.17 13.81 70.1 13.67 69.98 13.55C69.86 13.43 69.72 13.35 69.57 13.35L67.53 13.35L67.53 18.27L69.55 18.27C69.69 18.27 69.83 18.23 69.96 18.1Z" fill="#6B21A8" fill-opacity="1.000000" fill-rule="evenodd"/>
	<g clip-path="url(#clip16_551)">
		<path id="path1454" d="M18.97 30.91C18.56 30.76 18.16 30.62 17.75 30.47C15.29 29.57 12.83 28.68 10.36 27.78C10.25 27.74 10.22 27.69 10.22 27.57C10.22 20.71 10.22 13.85 10.22 6.99C10.22 6.89 10.24 6.82 10.33 6.75C13.16 4.54 15.99 2.33 18.82 0.11C18.87 0.08 18.91 0.05 18.97 0C18.97 10.31 18.97 20.6 18.97 30.91Z" fill="#6B21A8" fill-opacity="1.000000" fill-rule="evenodd"/>
		<path id="path1452" d="M0 30.91C0 20.6 0 10.31 0 0C0.28 0.21 0.54 0.42 0.81 0.63C3.4 2.65 5.99 4.68 8.59 6.71C8.71 6.8 8.76 6.9 8.76 7.05C8.75 13.87 8.75 20.69 8.76 27.5C8.76 27.68 8.71 27.75 8.55 27.81C5.75 28.82 2.96 29.84 0.16 30.85C0.11 30.87 0.06 30.89 0 30.91Z" fill="#6B21A8" fill-opacity="1.000000" fill-rule="evenodd"/>
		<path id="path1456" d="M1.36 33.97C1.36 34.6 1.36 35.21 1.36 35.84C1.63 35.84 1.89 35.84 2.16 35.83C2.2 35.83 2.26 35.75 2.26 35.71C2.27 35.18 2.27 34.65 2.26 34.12C2.26 34.07 2.19 33.98 2.14 33.98C1.88 33.97 1.62 33.97 1.36 33.97ZM2.41 40L2.44 40C2.69 39.99 2.91 39.91 3.11 39.78C3.39 39.58 3.56 39.32 3.55 38.96C3.54 38.42 3.55 37.89 3.55 37.35C3.55 36.91 3.39 36.56 2.97 36.35C3.31 36.11 3.44 35.9 3.44 35.52C3.45 34.97 3.45 34.42 3.44 33.87C3.43 33.27 3.04 32.9 2.44 32.9C1.73 32.9 1.02 32.9 0.31 32.9C0.25 32.9 0.2 32.9 0.13 32.9C0.13 35.27 0.13 37.62 0.13 39.99C0.9 39.99 1.66 39.99 2.41 40ZM1.37 38.91C1.65 38.91 1.91 38.9 2.18 38.91C2.33 38.92 2.38 38.84 2.38 38.71C2.38 38.24 2.38 37.76 2.38 37.29C2.38 37.1 2.24 36.93 2.07 36.92C1.84 36.9 1.61 36.91 1.37 36.91C1.37 37.58 1.37 38.24 1.37 38.91Z" fill="#6B21A8" fill-opacity="1.000000" fill-rule="evenodd"/>
		<path id="path1460" d="M8.97 34C8.62 34 8.31 34 7.99 34C7.88 34.01 7.83 33.97 7.79 33.86C7.67 33.55 7.54 33.24 7.41 32.91C8.83 32.91 10.22 32.91 11.64 32.91C11.6 33.04 11.56 33.17 11.51 33.29C11.45 33.49 11.37 33.68 11.31 33.87C11.28 33.98 11.23 34.01 11.12 34C10.8 34 10.48 34 10.15 34C10.15 36 10.15 37.99 10.15 39.98C9.75 39.98 9.37 39.98 8.97 39.98C8.97 38 8.97 36.02 8.97 34Z" fill="#6B21A8" fill-opacity="1.000000" fill-rule="evenodd"/>
		<path id="path1458" d="M15.72 37.66C16.11 37.66 16.49 37.66 16.89 37.66C16.89 37.71 16.9 37.76 16.9 37.8C16.9 38.13 16.9 38.46 16.9 38.79C16.89 38.9 16.93 38.96 17.05 38.96C17.24 38.96 17.43 38.96 17.62 38.96C17.74 38.96 17.79 38.88 17.79 38.78C17.8 38.36 17.8 37.94 17.79 37.53C17.78 37.44 17.71 37.33 17.64 37.27C17.43 37.11 17.22 36.97 16.99 36.84C16.59 36.61 16.22 36.36 15.94 35.99C15.79 35.78 15.7 35.57 15.7 35.3C15.72 34.81 15.71 34.31 15.71 33.82C15.71 33.31 16.12 32.9 16.64 32.9C17.09 32.9 17.55 32.9 18 32.9C18.6 32.9 18.93 33.21 18.98 33.8C18.99 33.86 18.98 33.91 18.98 33.97C18.98 34.33 18.98 34.69 18.98 35.06C18.6 35.06 18.22 35.06 17.83 35.06C17.83 35.02 17.82 34.98 17.82 34.94C17.82 34.68 17.81 34.42 17.81 34.16C17.81 34.06 17.77 33.99 17.66 33.99C17.45 33.99 17.24 33.98 17.02 34C16.98 34 16.9 34.09 16.9 34.14C16.89 34.51 16.88 34.88 16.9 35.25C16.91 35.35 17.04 35.46 17.14 35.53C17.45 35.75 17.78 35.94 18.11 36.15C18.39 36.33 18.67 36.53 18.84 36.83C18.92 36.97 18.98 37.14 18.98 37.3C18.99 37.55 18.99 37.79 18.99 38.04L18.99 38.19C18.99 38.48 18.99 38.76 18.98 39.05C18.98 39.56 18.57 39.98 18.05 39.99C17.55 40 17.06 39.99 16.57 39.99C16.17 39.99 15.72 39.56 15.71 39.16C15.7 38.68 15.71 38.21 15.71 37.73C15.71 37.71 15.72 37.69 15.72 37.66Z" fill="#6B21A8" fill-opacity="1.000000" fill-rule="evenodd"/>
	</g>
</svg>
